<mxfile host="app.diagrams.net" modified="2023-04-07T02:43:44.358Z" agent="Mozilla/5.0 (Windows NT 10.0; Win64; x64) AppleWebKit/537.36 (KHTML, like Gecko) Chrome/96.0.4664.45 Safari/537.36" version="21.1.4" etag="8cOq3oSgL-Dgs2bqo5vO" type="github">
  <diagram name="第 1 页" id="3GGF72pB2hjqWxkjBJib">
    <mxGraphModel>
      <root>
        <mxCell id="0" />
        <mxCell id="1" parent="0" />
      </root>
    </mxGraphModel>
  </diagram>
</mxfile>
